
<svg data-v-0dd9719b="" version="1.0" xmlns="http://www.w3.org/2000/svg" xmlns:xlink="http://www.w3.org/1999/xlink" width="100%" height="100%" viewBox="0 0 340.000000 250.000000" preserveAspectRatio="xMidYMid meet" color-interpolation-filters="sRGB" style="margin: auto;"> <rect data-v-0dd9719b="" x="0" y="0" width="100%" height="100%" fill="#0a0619" fill-opacity="0" class="background"></rect> <rect data-v-0dd9719b="" x="0" y="0" width="100%" height="100%" fill="url(#watermark)" fill-opacity="1" class="watermarklayer"></rect> <g data-v-0dd9719b="" class="iconmbgsvg" transform="translate(94.63999938964844,56.19495391845703)"><g fill="#ffecd2" hollow-target="textRect"><g transform="matrix(1,0,0,1,13.220001220703125,0)" mask="url(#70e5b16b-387d-4c3c-804b-c14895ea7af3)" opacity="1"><g><rect fill="#ffecd2" fill-opacity="0" stroke-width="2" x="0" y="0" width="137.5" height="137.61008807045636" class="image-rect"></rect> <svg x="0" y="0" width="137.5" height="137.61008807045636" filtersec="colorsb2447599166" class="image-svg-svg primary" style="overflow: visible;"><svg fill="#000000" xmlns="http://www.w3.org/2000/svg" viewBox="5.015323638916016 4.975105285644531 89.96699523925781 90.03902435302734" x="0px" y="0px"><path d="m 49.998819,4.9751055 c -24.821867,0 -44.9834934,20.1710675 -44.9834934,45.0195135 0,24.848447 20.1616264,45.019514 44.9834934,45.019514 24.821866,0 44.983493,-20.171067 44.983493,-45.019514 0,-24.848446 -20.161627,-45.0195135 -44.983493,-45.0195135 z m 0,3.0318545 c 23.226908,0 42.019464,18.787331 42.019464,41.987659 0,23.200328 -18.792556,41.987659 -42.019464,41.987659 -23.226908,0 -42.0194648,-18.787331 -42.0194648,-41.987659 0,-23.200328 18.7925568,-41.987659 42.0194648,-41.987659 z" color="#000"></path></svg></svg> <!----></g><rect v-gra="id" width="149.5" height="149.61009216308594" transform="translate(-6, -6)" style="pointer-events:none;" fill="url(#FsozvVwWHOH1LAcnfZUxW)"></rect></g> <g transform="translate(0,41.7850456237793)"><g data-gra="path-name" fill-rule="" class="tp-name" fill="url(#30a4185d-4a74-4073-9bd7-26664bc586d3)" transform="matrix(1,0,0,1,0,0)" opacity="1"><g transform="scale(1)"><g><path d="M46.27-56.25L34.13-56.25 14.4-30.9 14.4-56.25 4.13-56.25 4.13 0 14.4 0 14.4-25.2 34.05 0 46.2 0 24.3-28.05ZM114.07-56.32L103.57-56.32 90.75-23.63 85.42-36.38 93.82-56.32 83.32-56.32 80.17-48.75 77.03-56.32 66.53-56.32 75-36.23 69.83-23.63 56.77-56.32 46.27-56.32 69.3 1.72 80.17-24 91.05 1.72Z" transform="translate(-4.130000114440918, 56.31999969482422)"></path></g> <!----> <!----> <!----> <!----> <!----> <!----> <!----></g></g> <!----></g></g></g><mask id="df3af7a9-57c3-4220-bd2e-3f93a77507aa"><g fill="white"><g><rect fill-opacity="1" stroke-width="2" x="0" y="0" width="137.5" height="137.61008807045636" class="image-rect"></rect> <svg x="0" y="0" width="137.5" height="137.61008807045636" filtersec="colorsb2447599166" class="image-svg-svg primary" style="overflow: visible;"><svg xmlns="http://www.w3.org/2000/svg" viewBox="5.015323638916016 4.975105285644531 89.96699523925781 90.03902435302734" x="0px" y="0px"><path d="m 49.998819,4.9751055 c -24.821867,0 -44.9834934,20.1710675 -44.9834934,45.0195135 0,24.848447 20.1616264,45.019514 44.9834934,45.019514 24.821866,0 44.983493,-20.171067 44.983493,-45.019514 0,-24.848446 -20.161627,-45.0195135 -44.983493,-45.0195135 z m 0,3.0318545 c 23.226908,0 42.019464,18.787331 42.019464,41.987659 0,23.200328 -18.792556,41.987659 -42.019464,41.987659 -23.226908,0 -42.0194648,-18.787331 -42.0194648,-41.987659 0,-23.200328 18.7925568,-41.987659 42.0194648,-41.987659 z" color="#000"></path></svg></svg> </g></g> <g transform="translate(-13.220001220703125,41.7850456237793)"><rect fill="black" fill-opacity="1" x="-3.5" y="-3.5" width="116.94000244140625" height="65.04000091552734"></rect><rect fill="black" fill-opacity="1" x="-3.5" y="-3.5"></rect></g><g transform="translate(-13.220001220703125,41.7850456237793)" fill="black"><g data-gra="path-name" fill-rule="" class="tp-name" transform="matrix(1,0,0,1,0,0)" opacity="1"><g transform="scale(1)"><g><path d="M46.27-56.25L34.13-56.25 14.4-30.9 14.4-56.25 4.13-56.25 4.13 0 14.4 0 14.4-25.2 34.05 0 46.2 0 24.3-28.05ZM114.07-56.32L103.57-56.32 90.75-23.63 85.42-36.38 93.82-56.32 83.32-56.32 80.17-48.75 77.03-56.32 66.53-56.32 75-36.23 69.83-23.63 56.77-56.32 46.27-56.32 69.3 1.72 80.17-24 91.05 1.72Z" transform="translate(-4.130000114440918, 56.31999969482422)"></path></g>       </g></g> </g></mask><defs v-gra="od"><linearGradient x1="0" y1="1" x2="0" y2="0" id="30a4185d-4a74-4073-9bd7-26664bc586d3"><stop offset="0%" stop-color="#ffecd2"></stop><stop offset="100%" stop-color="#fcb69f"></stop></linearGradient><filter id="42443b3f1de60f6b6fd3b6a9844b4764" filterUnits="objectBoundingBox"><feColorMatrix type="matrix" values="0 0 0 0 0.99609375  0 0 0 0 0.99609375  0 0 0 0 0.99609375  0 0 0 1 0"></feColorMatrix></filter></defs><defs v-gra="id"><filter id="5abeff88-70c6-4a37-9e1f-81d7f4a381aa" filterUnits="userSpaceOnUse"><feColorMatrix type="matrix" values="0 0 0 0 0.99609375  0 0 0 0 0.99609375  0 0 0 0 0.99609375  0 0 0 1 0"></feColorMatrix></filter><linearGradient x1="0" y1="1" x2="0" y2="0" id="FsozvVwWHOH1LAcnfZUxW"><stop offset="0%" stop-color="#ffecd2"></stop><stop offset="100%" stop-color="#fcb69f"></stop></linearGradient><filter id="42443b3f1de60f6b6fd3b6a9844b4764" filterUnits="objectBoundingBox"><feColorMatrix type="matrix" values="0 0 0 0 0.99609375  0 0 0 0 0.99609375  0 0 0 0 0.99609375  0 0 0 1 0"></feColorMatrix></filter></defs><mask v-gra="im" id="70e5b16b-387d-4c3c-804b-c14895ea7af3"><g mask="url(#df3af7a9-57c3-4220-bd2e-3f93a77507aa)" filter="url(#5abeff88-70c6-4a37-9e1f-81d7f4a381aa)"><g><rect fill="#ffecd2" fill-opacity="0" stroke-width="2" x="0" y="0" width="137.5" height="137.61008807045636" class="image-rect"></rect> <svg x="0" y="0" width="137.5" height="137.61008807045636" filtersec="colorsb2447599166" class="image-svg-svg primary" style="overflow: visible;"><svg fill="#000000" xmlns="http://www.w3.org/2000/svg" viewBox="5.015323638916016 4.975105285644531 89.96699523925781 90.03902435302734" x="0px" y="0px"><path d="m 49.998819,4.9751055 c -24.821867,0 -44.9834934,20.1710675 -44.9834934,45.0195135 0,24.848447 20.1616264,45.019514 44.9834934,45.019514 24.821866,0 44.983493,-20.171067 44.983493,-45.019514 0,-24.848446 -20.161627,-45.0195135 -44.983493,-45.0195135 z m 0,3.0318545 c 23.226908,0 42.019464,18.787331 42.019464,41.987659 0,23.200328 -18.792556,41.987659 -42.019464,41.987659 -23.226908,0 -42.0194648,-18.787331 -42.0194648,-41.987659 0,-23.200328 18.7925568,-41.987659 42.0194648,-41.987659 z" color="#000"></path></svg></svg> <!----></g></g></mask></svg>